<svg width="24" height="20" viewBox="0 0 24 20" fill="none" xmlns="http://www.w3.org/2000/svg">
<path d="M21.3335 10.0003V4.16699H23.6668V11.167H21.3335M21.3335 15.8337H23.6668V13.5003H21.3335M9.66683 11.167C12.7818 11.167 19.0002 12.7303 19.0002 15.8337V19.3337H0.333496V15.8337C0.333496 12.7303 6.55183 11.167 9.66683 11.167ZM9.66683 0.666992C10.9045 0.666992 12.0915 1.15866 12.9667 2.03383C13.8418 2.909 14.3335 4.09598 14.3335 5.33366C14.3335 6.57134 13.8418 7.75832 12.9667 8.63349C12.0915 9.50866 10.9045 10.0003 9.66683 10.0003C8.42915 10.0003 7.24217 9.50866 6.367 8.63349C5.49183 7.75832 5.00016 6.57134 5.00016 5.33366C5.00016 4.09598 5.49183 2.909 6.367 2.03383C7.24217 1.15866 8.42915 0.666992 9.66683 0.666992ZM9.66683 13.3837C6.20183 13.3837 2.55016 15.087 2.55016 15.8337V17.117H16.7835V15.8337C16.7835 15.087 13.1318 13.3837 9.66683 13.3837ZM9.66683 2.88366C9.01705 2.88366 8.39388 3.14178 7.93442 3.60125C7.47495 4.06071 7.21683 4.68388 7.21683 5.33366C7.21683 5.98344 7.47495 6.60661 7.93442 7.06607C8.39388 7.52553 9.01705 7.78366 9.66683 7.78366C10.3166 7.78366 10.9398 7.52553 11.3992 7.06607C11.8587 6.60661 12.1168 5.98344 12.1168 5.33366C12.1168 4.68388 11.8587 4.06071 11.3992 3.60125C10.9398 3.14178 10.3166 2.88366 9.66683 2.88366Z" fill="black"/>
</svg>
